<?xml version="1.0" encoding="UTF-8" standalone="no"?><!DOCTYPE svg PUBLIC "-//W3C//DTD SVG 1.1//EN" "http://www.w3.org/Graphics/SVG/1.1/DTD/svg11.dtd"><svg width="100%" height="100%" viewBox="0 0 500 544" version="1.1" xmlns="http://www.w3.org/2000/svg" xmlns:xlink="http://www.w3.org/1999/xlink" xml:space="preserve" xmlns:serif="http://www.serif.com/" style="fill-rule:evenodd;clip-rule:evenodd;stroke-linejoin:round;stroke-miterlimit:2;"><g id="Layer2"><path d="M256.13,307.598l28.352,0.035l0.006,-4.88l-28.352,-0.036l-0.006,4.881Z" style="fill:#2ad800;"/><path d="M305.808,232.53c1.29,0.051 2.327,1.106 2.341,2.411c0.015,1.348 -1.065,2.452 -2.413,2.467l-72.107,0.791c-1.347,0.015 -2.452,-1.066 -2.467,-2.414c-0.014,-1.347 1.066,-2.452 2.414,-2.466l72.106,-0.791l0.126,0.002Z" style="fill:#2ad800;"/><path d="M0.2,265.18c-0,-1.641 499.799,-1.641 499.799,-0c-0,137.979 -111.976,250 -249.9,250c-137.923,-0 -249.899,-112.021 -249.899,-250Z" style="fill:#615048;"/><g><path d="M218.646,413.267c-0,-0 46.192,110.742 53.137,127.585l9.245,-3.812c-6.947,-16.848 -53.153,-127.623 -53.153,-127.623l-9.229,3.85Z" style="fill:#fff;"/><path d="M153.751,431.778l-54.408,61.952l-8.934,-7.846l55.591,-63.3c0.772,-0.879 1.786,-1.511 2.915,-1.816l74.334,-20.101l3.104,11.478l-72.602,19.633Z" style="fill:#fff;"/><path d="M148.1,421.165l-95.263,25.656l3.092,11.481l95.263,-25.656l-3.092,-11.481Z" style="fill:#fff;"/><path d="M193.555,473.095l-57.287,34.954l-6.193,-10.15l66.203,-40.394c1.825,-1.113 4.106,-1.162 5.976,-0.127c1.87,1.035 3.04,2.994 3.066,5.131l0.73,61.258l-11.89,0.142l-0.605,-50.814Z" style="fill:#fff;"/><path d="M262.716,304.829l-68.182,158.402l9.185,3.953l68.182,-158.402l-9.185,-3.953Z" style="fill:#fff;"/></g><g><path d="M267.4,308.445l41.73,97.264l9.19,-3.943l-41.73,-97.264l-9.19,3.943Z" style="fill:#fff;"/><path d="M308.498,397.445l-50.459,126.701l11.047,4.4l50.459,-126.702l-11.047,-4.399Z" style="fill:#fff;"/><path d="M351.458,459.897l-5.847,48.497l-11.804,-1.423l6.576,-54.553c0.192,-1.592 1.018,-3.038 2.292,-4.012c1.274,-0.973 2.887,-1.391 4.473,-1.159l69.595,10.205l-1.725,11.765l-63.56,-9.32Z" style="fill:#fff;"/><path d="M309.132,405.135l32.53,50.759l8.42,-5.395l-32.531,-50.76l-8.419,5.396Z" style="fill:#fff;"/><path d="M323.834,423.405l61.171,-3.463l-0.672,-11.871l-61.171,3.463l0.672,11.871Z" style="fill:#fff;"/><path d="M392.344,417.973l33.407,29.908l-7.931,8.859l-42.243,-37.819c-1.676,-1.501 -2.362,-3.819 -1.772,-5.99c0.591,-2.171 2.356,-3.822 4.561,-4.267l92.028,-18.569l2.352,11.655l-80.402,16.223Z" style="fill:#fff;"/></g><path d="M250,13.185c137.979,0 250,112.022 250,250c0,15.058 -1.258,29.82 -3.89,44.134c-0.006,0.028 -492.066,0.85 -492.07,0.829c-2.66,-14.586 -4.04,-29.614 -4.04,-44.963c-0,-137.978 112.021,-250 250,-250Z" style="fill:#2ad800;"/><g><path d="M300.134,237.349l42.534,-99.263l-10.929,-4.683l-42.534,99.262l10.929,4.684Z" style="fill:#fff;"/><path d="M342.978,137.527l-49.354,-117.024l-10.956,4.62l49.354,117.025l10.956,-4.621Z" style="fill:#fff;"/><path d="M374.936,79.585l63.56,-9.32l1.725,11.765l-69.594,10.205c-1.587,0.232 -3.199,-0.185 -4.473,-1.159c-1.274,-0.974 -2.1,-2.42 -2.292,-4.012l-6.577,-54.553l11.805,-1.423l5.846,48.497Z" style="fill:#fff;"/><path d="M341.825,140.253l32.531,-50.76l-10.011,-6.415l-32.53,50.759l10.01,6.416Z" style="fill:#fff;"/><path d="M320.846,187.623l53.23,-22.902l-4.699,-10.922l-53.23,22.902l4.699,10.922Z" style="fill:#fff;"/><path d="M388.043,151.334l89.406,-11.21l1.479,11.797l-106.955,13.412c-2.533,0.317 -4.987,-1.018 -6.095,-3.319c-1.108,-2.3 -0.624,-5.051 1.203,-6.835l74.03,-72.261l8.306,8.508l-61.374,59.908Z" style="fill:#fff;"/></g><g><path d="M233.885,66.215l-24.129,-54.355l10.868,-4.824l24.86,56.002c0.476,1.074 0.624,2.266 0.424,3.424l-18.698,108.294l21.869,56.276l-11.083,4.307l-22.466,-57.814c-0.392,-1.007 -0.501,-2.101 -0.317,-3.165l18.672,-108.145Z" style="fill:#fff;"/><path d="M134.988,121.672l73.036,9.94l-1.603,11.781l-74.172,-10.093c-0.751,-0.103 -1.475,-0.347 -2.134,-0.721l-75.838,-43.057l5.87,-10.34l74.841,42.49Z" style="fill:#fff;"/><path d="M132.045,121.377l-126.911,38.406l3.444,11.381l126.911,-38.407l-3.444,-11.38Z" style="fill:#fff;"/><path d="M171.856,69.015l0.605,-50.813l11.89,0.142l-0.73,61.258c-0.026,2.137 -1.196,4.095 -3.066,5.13c-1.87,1.035 -4.151,0.987 -5.976,-0.126l-66.203,-40.395l6.193,-10.15l57.287,34.954Z" style="fill:#fff;"/><path d="M228.743,178.666l-45.875,-104.159l-10.881,4.792l45.875,104.16l10.881,-4.793Z" style="fill:#fff;"/><path d="M241.561,74.805l67.571,-64.561l-8.214,-8.597l-67.571,64.561l8.214,8.597Z" style="fill:#fff;"/></g><text x="10.148px" y="299.438px" style="font-family:'OpenSans-Regular', 'Open Sans', sans-serif;font-size:81px;fill:#fff;stroke:#fff;stroke-width:3.47px;">P<tspan x="63.251px 117.776px 186.469px 242.285px 294.785px 319.377px 368.173px 432.388px " y="299.438px 299.438px 299.438px 299.438px 299.438px 299.438px 299.438px 299.438px ">ROAVITUS</tspan></text><path d="M238.032,235.34c0,0 8.233,-0.08 11.475,-0.112c0.29,-0.003 0.559,-0.149 0.718,-0.39c0.16,-0.242 0.189,-0.547 0.078,-0.814c-0.732,-1.765 -2.025,-4.882 -2.074,-5.001c-0.001,-0.001 -0.002,-0.002 -0.002,-0.002c-0.001,-0.001 -0.002,-0 -0.003,0c-0.206,0.128 -10.192,6.319 -10.192,6.319Z" style="fill:#fff;"/><path d="M256.13,307.598l28.352,0.035l0.006,-4.88l-28.352,-0.036l-0.006,4.881Z" style="fill:#2ad800;"/><path d="M305.808,232.53c1.29,0.051 2.327,1.106 2.341,2.411c0.015,1.348 -1.065,2.452 -2.413,2.467l-72.107,0.791c-1.347,0.015 -2.452,-1.066 -2.467,-2.414c-0.014,-1.347 1.066,-2.452 2.414,-2.466l72.106,-0.791l0.126,0.002Z" style="fill:#2ad800;"/></g></svg>